Coordinates
version=1
nRows=22
nColumns=18
inDegrees=yes

Units are S.I. units (second, meters, Newtons, ...)
If the header above contains a line with 'inDegrees', this indicates whether rotational values are in degrees (yes) or radians (no).

endheader
time	ground_thorax_rot_x	ground_thorax_rot_y	ground_thorax_rot_z	ground_thorax_tx	ground_thorax_ty	ground_thorax_tz	clav_prot	clav_elev	scapula_abduction	scapula_elevation	scapula_upward_rot	scapula_winging	plane_elv	shoulder_elv	axial_rot	elbow_flexion	pro_sup
      1.15000000	      2.21399532	     -3.25973258	     -8.56153678	     -0.00509186	      0.00501134	      0.00077026	    -20.24436909	      4.87515603	     -9.52576982	      2.26224284	     16.10830664	      2.77763642	     -4.38287491	     15.21739055	     35.99096972	      0.00000000	     34.32000000
      1.16000000	      2.50936391	     -3.07398337	     -8.57647534	     -0.00502194	      0.00500776	      0.00084729	    -20.37426769	      5.90467214	     -9.55652335	      2.76973514	     17.09997467	      2.45042382	     -3.28816350	     14.49964979	     36.13599805	      0.00000000	     34.32000000
      1.17000000	      2.19086726	     -2.92720480	     -8.49248585	     -0.00498950	      0.00527573	      0.00042445	    -20.35272269	      6.15905621	     -9.52148207	      2.91991384	     17.26372890	      2.39578497	     -3.08296519	     14.23793318	     36.11086531	      0.00000000	     34.32000000
      1.18000000	      2.38548490	     -2.81920318	     -8.54176197	     -0.00497527	      0.00515401	      0.00049846	    -20.71939938	      6.92942375	    -10.18116550	      3.34205834	     17.79336278	      2.25239662	     -0.91027439	     13.93043703	     35.35298937	      0.00000000	     34.32000000
      1.19000000	      2.28961196	     -2.84831486	     -8.54152643	     -0.00494280	      0.00517928	      0.00029729	    -20.80979231	      7.19981096	    -10.20899505	      3.43759538	     18.18467616	      2.13323355	     -0.77043650	     13.69154535	     35.08989981	      0.00000000	     34.32000000
      1.20000000	      2.13730715	     -2.79800547	     -8.51822942	     -0.00486430	      0.00533378	      0.00018689	    -20.82696070	      7.24661529	    -10.18427762	      3.44137523	     18.30044192	      2.09669957	     -0.75761684	     13.77542378	     35.09414823	      0.00000000	     34.32000000
      1.21000000	      2.21035002	     -2.61245574	     -8.52349528	     -0.00489651	      0.00523191	      0.00033624	    -20.91076886	      7.73019977	    -10.10550688	      3.62334943	     18.97853248	      1.88965038	     -0.99254137	     13.43293534	     34.80728965	      0.00000000	     34.32000000
      1.22000000	      2.09344837	     -2.40992832	     -8.52359241	     -0.00498199	      0.00541145	      0.00032488	    -20.89038191	      7.86103177	     -9.99116064	      3.66960890	     19.18327124	      1.82551095	     -1.00336046	     13.46315587	     34.76195732	      0.00000000	     34.32000000
      1.23000000	      2.19822172	     -2.34885004	     -8.40698771	     -0.00504688	      0.00543441	      0.00026699	    -20.90816914	      8.47391262	     -9.79962814	      3.93423828	     19.93792597	      1.60150629	     -1.11716562	     13.00121141	     34.38468731	      0.00000000	     34.32000000
      1.24000000	      2.15201150	     -2.38337068	     -8.44736512	     -0.00500464	      0.00538730	      0.00005616	    -20.93711508	      8.87363603	     -9.74616427	      4.12138459	     20.37226181	      1.47884069	      0.28034058	     12.89069636	     31.84699455	      0.00000000	     34.32000000
      1.25000000	      1.86469201	     -2.27799388	     -8.34816391	     -0.00512810	      0.00562956	     -0.00033755	    -20.91850905	      8.99045907	     -9.65798448	      4.16912174	     20.53257582	      1.43178465	      0.35253564	     12.69591191	     31.82868493	      0.00000000	     34.32000000
      1.26000000	      1.69437197	     -2.29112167	     -8.27640080	     -0.00513977	      0.00573259	     -0.00040363	    -20.95766238	      9.30746069	     -9.56926161	      4.28929492	     20.98490010	      1.30110933	      0.46017759	     12.34405825	     31.77264773	      0.00000000	     34.32000000
      1.27000000	      2.00926508	     -2.26361282	     -8.31226714	     -0.00508249	      0.00567791	     -0.00009437	    -21.21124058	     10.13130947	     -9.75783682	      4.64573631	     21.96087677	      1.03981587	      1.35083958	     11.87522588	     31.42211070	      0.00000000	     34.32000000
      1.28000000	      1.78818904	     -2.14995472	     -8.26697266	     -0.00516695	      0.00587510	     -0.00028564	    -21.19558559	     10.26931438	     -9.67505636	      4.70622108	     22.13522594	      0.99230812	      1.38739745	     11.78162093	     31.40249148	      0.00000000	     34.32000000
      1.29000000	      1.86098072	     -2.22736724	     -8.23273458	     -0.00513974	      0.00587220	     -0.00028639	    -21.23041874	     10.82368874	     -9.44769397	      4.91930163	     22.93537960	      0.77189611	      1.58831655	     11.16258308	     31.38492433	      0.00000000	     34.32000000
      1.30000000	      1.53186014	     -2.06861098	     -8.10483924	     -0.00522124	      0.00606913	     -0.00081759	    -21.17255494	     10.99926792	     -9.30127726	      5.00905961	     23.11688455	      0.72726905	      1.76580662	     10.73237180	     31.40849689	      0.00000000	     34.32000000
      1.31000000	      1.61514027	     -2.04651391	     -8.16209192	     -0.00504996	      0.00602976	     -0.00096523	    -21.30925621	     11.73268489	     -9.22940533	      5.31026763	     24.08748571	      0.47729604	      2.71641150	      9.77451435	     31.76796165	      0.00000000	     34.32000000
      1.32000000	      1.32912919	     -1.85757797	     -8.06733486	     -0.00503024	      0.00623584	     -0.00140100	    -21.30840508	     11.92093816	     -9.19913932	      5.40825644	     24.26336361	      0.43978269	      2.91065475	      9.46807263	     31.79229585	      0.00000000	     34.32000000
      1.33000000	      1.55010275	     -1.62517762	     -8.10622213	     -0.00494306	      0.00620489	     -0.00135822	    -21.68623836	     12.52486535	     -9.64075194	      5.64586127	     25.04962468	      0.24400298	      3.59450859	      8.97106936	     31.81511452	      0.00000000	     34.32000000
      1.34000000	      1.40966775	     -1.60235005	     -8.09279246	     -0.00485404	      0.00640994	     -0.00168007	    -21.70066310	     12.57255081	     -9.64582930	      5.66519234	     25.11335827	      0.22818850	      3.61699912	      8.99205979	     31.81693433	      0.00000000	     34.32000000
      1.35000000	      1.20784146	     -1.51169453	     -8.04690421	     -0.00484308	      0.00637535	     -0.00196062	    -21.80906176	     12.75046458	     -9.82076266	      5.75121181	     25.28032277	      0.19298632	      3.90824469	      8.62807696	     31.78184441	      0.00000000	     34.32000000
      1.36000000	      1.44403307	     -1.01996235	     -8.17051346	     -0.00484153	      0.00618885	     -0.00183860	    -22.44433735	     13.26020575	    -11.05611316	      6.01721653	     25.59256148	      0.13689757	      7.29412515	      8.45955585	     30.48387903	      0.00000000	     34.32000000
